<?xml version="1.0" encoding="utf-8"?>
<!-- Generator: Adobe Illustrator 19.0.0, SVG Export Plug-In . SVG Version: 6.00 Build 0)  -->
<svg version="1.1" id="Layer_1" xmlns="http://www.w3.org/2000/svg" xmlns:xlink="http://www.w3.org/1999/xlink" x="0px" y="0px"
	 viewBox="0 0 462 462" style="enable-background:new 0 0 462 462;" xml:space="preserve">
<style type="text/css">
	.st0{fill:#fff;}
</style>
<g>
	<path class="st0" d="M0,243c0-8,0-16,0-24c1.9-0.9,1-2.6,1.1-4c1-10.8,2.3-21.5,4.6-32.1c11.2-51.5,37-94.3,77.2-128.3
		c33.8-28.6,72.9-45.8,116.8-51.9c6.4-0.9,13.1-0.3,19.3-2.7c7.3,0,14.7,0,22,0c0.9,1.9,2.7,0.9,4,1c11.1,0.8,22.2,2.1,33.1,4.4
		c56,12.2,101.6,41,136.4,86.4c24.4,31.9,39.2,68,44.7,107.8c0.9,6.8,0.5,13.7,2.8,20.3c0,7.7,0,15.3,0,23c-1.8,0.7-1,2.3-1.1,3.4
		c-1.5,19.3-4.4,38.4-11.2,56.6c-34.1,92.1-99.7,144.8-197.4,157.3c-3.8,0.5-7.8-0.4-11.4,1.6c-7.3,0-14.7,0-22,0
		c-0.7-1.8-2.3-1-3.4-1.1c-10.6-0.9-21.2-2.1-31.6-4.4c-52-11.3-95.4-37.1-129.6-77.8C26,345,8.9,306.1,2.7,262.3
		C1.8,255.9,2.5,249.2,0,243z M245,156.3c-3.4,0.2-7,0.4-10.7,0.8c-2.6,0.3-5.3,0.8-7.9,1.4c-28.9,6.7-51.1,24.1-71.1,44.8
		c-1,1.1-1.8,2.4-2.6,3.7c-1.9,3-2.1,6,0.6,8.6c2.7,2.7,5.6,1.7,8.1-0.3c3.4-2.7,6.7-5.4,10-8.3c7.2-6.5,14-13.4,22-18.8
		c4.1-2.8,8.4-5.4,13.7-5.5c4.8-0.1,7,2.2,6.9,7c-0.1,2.9-1.5,5.4-2.9,7.9c-17.2,32.1-34.5,64-51.4,96.3
		c-7.5,14.3-13.9,29.1-16.3,45.3c-1.9,13,4.2,22.8,16.8,26.9c8.8,2.9,17.8,3,26.7,1.3c33.3-6.1,60.4-23.4,83.8-47.1
		c2.3-2.3,4.2-5.2,5.9-8c2-3.3,2-6.7-0.9-9.6c-3.3-3.2-6-0.4-8.2,1.5c-7.7,6.4-15.1,13.1-22.8,19.5c-5.2,4.4-10.6,8.7-17.2,10.9
		c-6.9,2.3-10.9-1.5-9.2-8.5c1.2-5.2,3.6-10,6.1-14.7c16.1-31.5,32.2-63,48.3-94.5c4-7.9,7.3-16,8.9-24.8c3.3-17.1-4.4-30-20.4-34.1
		C256,156.8,250.6,156.7,245,156.3z M247.7,114.3c0,9.7,5,19.4,16.6,25c15.7,7.5,35.6,2.9,46.5-10.7c13.7-17.1,9.5-41.6-8.7-50.5
		C277.6,66.1,248,84.3,247.7,114.3z"/>
</g>
</svg>
